<?xml version="1.0" ?>
<svg xmlns="http://www.w3.org/2000/svg" version="1.1" width="600" height="600">
  <defs/>
  <g>
    <path stroke-width="0" fill="rgb(0, 0, 0)" opacity="1.0" d="M 137.74339294433594 378.845458984375 C 138.93499755859375 359.6785888671875 138.75027465820312 359.4317321777344 139.29608154296875 361.2349853515625 C 137.3587646484375 353.37933349609375 134.18792724609375 350.0719909667969 119.66244506835938 345.74114990234375 C 119.97303771972656 343.4263916015625 120.94279479980469 341.2344970703125 132.57630920410156 339.03582763671875 C 138.5824737548828 337.76025390625 138.91278076171875 337.5721435546875 150.3838348388672 338.336669921875 C 151.51649475097656 337.05426025390625 154.22213745117188 332.03521728515625 156.683349609375 328.42510986328125 C 159.28297424316406 326.93072509765625 159.1727752685547 324.939697265625 151.02243041992188 318.3390808105469 C 147.18524169921875 316.0129699707031 146.8239288330078 315.86676025390625 143.34521484375 314.1412353515625 C 138.91397094726562 313.48345947265625 133.1273651123047 313.1622314453125 127.02670288085938 311.8387451171875 C 131.70120239257812 306.6377868652344 138.052001953125 305.03778076171875 145.764892578125 302.82232666015625 C 152.4100341796875 301.4800720214844 157.67697143554688 302.5060729980469 162.59732055664062 301.9919738769531 C 165.01397705078125 297.0299377441406 168.25784301757812 289.4891662597656 173.44918823242188 282.4185485839844 C 176.9757843017578 275.65850830078125 182.48121643066406 269.6902770996094 187.81361389160156 264.4829406738281 C 192.74362182617188 259.50457763671875 198.630126953125 253.78025817871094 206.80963134765625 249.41970825195312 C 212.74044799804688 245.69143676757812 217.08944702148438 243.47940063476562 215.0828857421875 242.60427856445312 C 215.48648071289062 243.2547607421875 215.6561279296875 243.0347442626953 215.7880859375 242.833251953125 C 216.08056640625 243.022216796875 216.35128784179688 243.21099853515625 216.26901245117188 243.14794921875 C 217.781494140625 242.24940490722656 219.27139282226562 243.5115203857422 221.36557006835938 242.1759490966797 C 225.26144409179688 238.8707733154297 228.6812744140625 238.7047119140625 230.41390991210938 238.8422393798828 C 233.67828369140625 239.8766632080078 231.86553955078125 243.7843780517578 233.33389282226562 244.0147705078125 C 231.72811889648438 245.51487731933594 232.95901489257812 245.62860107421875 233.380615234375 245.44619750976562 C 236.66244506835938 251.79188537597656 235.81674194335938 264.2486877441406 234.27877807617188 283.5436706542969 C 229.63705444335938 295.6497802734375 225.88125610351562 310.048095703125 213.38018798828125 322.9407958984375 C 212.6527099609375 324.4533996582031 208.70034790039062 330.609375 208.01055908203125 326.5145263671875 C 210.2581787109375 329.8724670410156 210.34982299804688 330.1863098144531 216.78488159179688 338.36627197265625 C 219.09573364257812 345.9093017578125 219.96127319335938 351.5020751953125 219.93893432617188 356.4971008300781 C 219.47601318359375 361.039794921875 217.92401123046875 364.83880615234375 215.11199951171875 368.9798889160156 C 214.268310546875 368.620361328125 213.82522583007812 368.22308349609375 213.75357055664062 367.55804443359375 C 213.18978881835938 366.2984924316406 212.8470458984375 365.0269775390625 212.40753173828125 363.70306396484375 C 211.92633056640625 362.4344482421875 211.8240966796875 362.36834716796875 211.27099609375 359.6099853515625 C 210.54727172851562 359.0006408691406 210.4522705078125 359.1790771484375 210.57342529296875 360.69464111328125 C 210.26834106445312 357.4553527832031 208.33840942382812 356.49468994140625 207.79513549804688 354.06890869140625 C 206.81451416015625 353.4525146484375 205.84255981445312 352.51519775390625 205.5203857421875 351.9476318359375 C 205.39453125 350.2066650390625 202.6624755859375 349.166748046875 202.4599609375 348.63232421875 C 200.14053344726562 348.03076171875 200.01251220703125 346.9638671875 199.71939086914062 346.19671630859375 C 187.31747436523438 344.09539794921875 187.10821533203125 343.52899169921875 185.98736572265625 330.15484619140625 C 187.6547088623047 318.0364074707031 189.31060791015625 313.31292724609375 191.669677734375 308.2007751464844 C 191.90199279785156 308.20050048828125 190.53964233398438 307.8323974609375 192.96054077148438 303.79913330078125 C 186.96371459960938 301.90057373046875 185.42599487304688 301.6844482421875 184.130126953125 301.0974426269531 C 182.21636962890625 300.483154296875 181.18438720703125 300.4293212890625 171.33445739746094 302.3729553222656 C 169.93365478515625 301.80029296875 168.18495178222656 300.8929443359375 168.67308044433594 305.23553466796875 C 164.52914428710938 316.62005615234375 163.2432861328125 324.3409423828125 163.09811401367188 327.06085205078125 C 169.32081604003906 340.5339050292969 169.1165008544922 340.8155212402344 162.15365600585938 344.07781982421875 C 155.89450073242188 347.38983154296875 150.90939331054688 352.5538330078125 150.3142852783203 353.25836181640625 C 149.94119262695312 354.8983154296875 149.60818481445312 363.7770080566406 137.74339294433594 378.845458984375M 206.38772583007812 271.2242431640625 C 208.70437622070312 267.7381896972656 209.260498046875 266.7390441894531 211.15289306640625 264.07080078125 C 213.0494384765625 260.7436218261719 214.80450439453125 257.67938232421875 217.23834228515625 253.45034790039062 C 212.41983032226562 254.0804901123047 208.3087158203125 255.4663848876953 203.24838256835938 258.2041931152344 C 200.55612182617188 264.6912536621094 197.3104248046875 268.00537109375 193.14801025390625 271.26220703125 C 187.8950653076172 275.060791015625 184.075927734375 278.9855041503906 180.78155517578125 283.52459716796875 C 178.11349487304688 287.449462890625 175.11074829101562 293.0225830078125 171.429931640625 298.5475769042969 C 182.262451171875 296.8494873046875 186.83750915527344 297.1659851074219 193.77267456054688 301.8056640625 C 195.24798583984375 295.14788818359375 197.62985229492188 289.5777587890625 200.47650146484375 283.8571472167969 C 202.51324462890625 279.2530822753906 204.0030517578125 275.1060791015625 206.38772583007812 271.2242431640625"/>
    <path stroke-width="0" fill="rgb(0, 0, 0)" opacity="1.0" d="M 237.91879272460938 355.7923583984375 C 237.91879272460938 350.689697265625 239.1370849609375 343.4913330078125 241.5736083984375 334.197265625 C 242.82232666015625 329.5501708984375 244.31472778320312 324.5234375 246.05078125 319.1170654296875 C 247.78680419921875 313.710693359375 249.7664794921875 307.9246826171875 251.9898681640625 301.7589111328125 C 253.80203247070312 296.8233642578125 255.58566284179688 292.09466552734375 257.34075927734375 287.5728759765625 C 259.0958251953125 283.0511474609375 260.82232666015625 278.73626708984375 262.52032470703125 274.6282958984375 C 265.916259765625 266.4124755859375 269.197998046875 259.02423095703125 272.365478515625 252.46368408203125 C 275.5634765625 245.903076171875 278.7233581542969 240.06390380859375 281.8451843261719 234.946044921875 C 284.9670104980469 229.8282470703125 288.05078125 225.4317626953125 291.096435546875 221.75665283203125 C 292.4974670410156 221.9996337890625 294.20306396484375 222.6070556640625 296.21319580078125 223.5789794921875 C 298.2842712402344 224.490234375 300.32489013671875 225.49249267578125 302.33502197265625 226.5859375 C 304.3451843261719 227.6793212890625 306.1116943359375 228.83349609375 307.634521484375 230.0484619140625 C 309.21826171875 231.20263671875 310.2538146972656 232.11376953125 310.7411193847656 232.781982421875 C 306.172607421875 238.15802001953125 301.88580322265625 243.739013671875 297.8807373046875 249.52508544921875 C 293.8756408691406 255.3111572265625 290.15228271484375 261.30218505859375 286.7106628417969 267.498291015625 C 283.26904296875 273.6639404296875 279.97210693359375 280.2852783203125 276.8197937011719 287.3621826171875 C 273.6675109863281 294.4390869140625 270.659912109375 301.9715576171875 267.79693603515625 309.9595947265625 C 265.3299560546875 316.854248046875 263.159912109375 323.4072265625 261.28680419921875 329.6185302734375 C 259.4136962890625 335.82977294921875 257.83758544921875 341.6993408203125 256.5583801269531 347.22723388671875 C 255.2791748046875 352.7247314453125 254.31979370117188 357.759033203125 253.68020629882812 362.3302001953125 C 253.04061889648438 366.9012451171875 252.7208251953125 371.00921630859375 252.7208251953125 374.65399169921875 C 252.7208251953125 376.6585693359375 252.7208251953125 377.87353515625 252.7208251953125 378.2987060546875 C 252.7208251953125 378.78466796875 252.78173828125 379.2706298828125 252.903564453125 379.756591796875 C 251.25888061523438 379.513671875 249.82742309570312 379.08843994140625 248.609130859375 378.48095703125 C 247.4517822265625 377.93426513671875 246.69036865234375 377.26605224609375 246.32489013671875 376.476318359375 C 246.14215087890625 375.868896484375 245.5025634765625 375.0184326171875 244.40609741210938 373.925048828125 C 243.37054443359375 372.83160400390625 242.45684814453125 371.981201171875 241.66497802734375 371.3736572265625 C 240.56854248046875 370.644775390625 239.65484619140625 368.8223876953125 238.92385864257812 365.9066162109375 C 238.2537841796875 362.9300537109375 237.91879272460938 359.55859375 237.91879272460938 355.7923583984375"/>
    <path stroke-width="0" fill="rgb(0, 0, 0)" opacity="1.0" d="M 278.852783203125 355.7923583984375 C 278.852783203125 350.689697265625 280.0710754394531 343.4913330078125 282.50762939453125 334.197265625 C 283.75634765625 329.5501708984375 285.24871826171875 324.5234375 286.9847717285156 319.1170654296875 C 288.7208251953125 313.710693359375 290.70050048828125 307.9246826171875 292.9238586425781 301.7589111328125 C 294.7360534667969 296.8233642578125 296.5196533203125 292.09466552734375 298.2747497558594 287.5728759765625 C 300.0298156738281 283.0511474609375 301.75634765625 278.73626708984375 303.4543151855469 274.6282958984375 C 306.85028076171875 266.4124755859375 310.1319580078125 259.02423095703125 313.29949951171875 252.46368408203125 C 316.4974670410156 245.903076171875 319.6573486328125 240.06390380859375 322.7791748046875 234.946044921875 C 325.9010009765625 229.8282470703125 328.98480224609375 225.4317626953125 332.03045654296875 221.75665283203125 C 333.43145751953125 221.9996337890625 335.1370849609375 222.6070556640625 337.147216796875 223.5789794921875 C 339.21826171875 224.490234375 341.2589111328125 225.49249267578125 343.26904296875 226.5859375 C 345.2791748046875 227.6793212890625 347.045654296875 228.83349609375 348.56854248046875 230.0484619140625 C 350.15228271484375 231.20263671875 351.1878662109375 232.11376953125 351.67510986328125 232.781982421875 C 347.1065673828125 238.15802001953125 342.81982421875 243.739013671875 338.814697265625 249.52508544921875 C 334.8096923828125 255.3111572265625 331.0863037109375 261.30218505859375 327.6446533203125 267.498291015625 C 324.20306396484375 273.6639404296875 320.9060974121094 280.2852783203125 317.7538146972656 287.3621826171875 C 314.6015319824219 294.4390869140625 311.5939025878906 301.9715576171875 308.73095703125 309.9595947265625 C 306.26397705078125 316.854248046875 304.09393310546875 323.4072265625 302.2208251953125 329.6185302734375 C 300.34771728515625 335.82977294921875 298.7715759277344 341.6993408203125 297.49237060546875 347.22723388671875 C 296.21319580078125 352.7247314453125 295.2538146972656 357.759033203125 294.61419677734375 362.3302001953125 C 293.974609375 366.9012451171875 293.65484619140625 371.00921630859375 293.65484619140625 374.65399169921875 C 293.65484619140625 376.6585693359375 293.65484619140625 377.87353515625 293.65484619140625 378.2987060546875 C 293.65484619140625 378.78466796875 293.7157287597656 379.2706298828125 293.83758544921875 379.756591796875 C 292.1929016113281 379.513671875 290.76141357421875 379.08843994140625 289.54315185546875 378.48095703125 C 288.38580322265625 377.93426513671875 287.6243896484375 377.26605224609375 287.2588806152344 376.476318359375 C 287.0761413574219 375.868896484375 286.4365539550781 375.0184326171875 285.340087890625 373.925048828125 C 284.3045654296875 372.83160400390625 283.390869140625 371.981201171875 282.5989990234375 371.3736572265625 C 281.5025634765625 370.644775390625 280.5888366699219 368.8223876953125 279.85784912109375 365.9066162109375 C 279.18780517578125 362.9300537109375 278.852783203125 359.55859375 278.852783203125 355.7923583984375"/>
    <path stroke-width="0" fill="rgb(0, 0, 0)" opacity="1.0" d="M 382.83251953125 295.7451171875 C 382.5888671875 299.23797607421875 382.1396484375 302.4879150390625 381.4847412109375 305.49481201171875 C 380.8299560546875 308.501708984375 379.96954345703125 311.265625 378.903564453125 313.78662109375 C 377.8680419921875 316.3076171875 376.596435546875 318.6690673828125 375.0888671875 320.87109375 C 373.58123779296875 323.0731201171875 371.83758544921875 325.11572265625 369.85791015625 326.99884033203125 C 367.90863037109375 328.8819580078125 365.7462158203125 330.68157958984375 363.37054443359375 332.39764404296875 C 360.99493408203125 334.11370849609375 358.4061279296875 335.7462158203125 355.60406494140625 337.2952880859375 C 352.802001953125 338.81390380859375 349.76397705078125 340.30218505859375 346.4898681640625 341.7601318359375 C 343.21575927734375 343.218017578125 339.70556640625 344.6455078125 335.95941162109375 346.04266357421875 C 335.95941162109375 346.71087646484375 335.928955078125 347.409423828125 335.8680419921875 348.138427734375 C 335.80712890625 348.86737060546875 335.77667236328125 349.65704345703125 335.77667236328125 350.50750732421875 C 335.77667236328125 351.96539306640625 335.8984375 353.4840087890625 336.14215087890625 355.0634765625 C 336.38580322265625 356.642822265625 336.78173828125 358.131103515625 337.3299560546875 359.52825927734375 C 337.9390869140625 360.8646240234375 338.76141357421875 361.9581298828125 339.7969970703125 362.80853271484375 C 340.83251953125 363.658935546875 342.172607421875 364.084228515625 343.8172607421875 364.084228515625 C 346.98480224609375 364.084228515625 350.09136962890625 363.416015625 353.1370849609375 362.07958984375 C 356.1827392578125 360.68243408203125 359.076171875 359.011962890625 361.8172607421875 357.06805419921875 C 364.558349609375 355.0634765625 367.11676025390625 352.906982421875 369.492431640625 350.5986328125 C 371.928955078125 348.2294921875 374.09136962890625 346.07305908203125 375.979736328125 344.129150390625 C 377.1370849609375 345.161865234375 378.1116943359375 346.1641845703125 378.903564453125 347.1361083984375 C 376.2843017578125 350.537841796875 373.5355224609375 353.651123046875 370.6573486328125 356.47576904296875 C 367.7791748046875 359.30047607421875 364.7716064453125 361.83660888671875 361.634521484375 364.084228515625 C 358.5279541015625 366.331787109375 355.4898681640625 368.17694091796875 352.52032470703125 369.61962890625 C 349.55078125 371.0623779296875 346.6497802734375 372.1026611328125 343.8172607421875 372.740478515625 C 339.7969970703125 372.284912109375 336.21826171875 371.335693359375 333.08123779296875 369.89306640625 C 329.94415283203125 368.4503173828125 327.248779296875 366.5140380859375 324.99493408203125 364.084228515625 C 322.7410888671875 361.65435791015625 321.0507507324219 358.97393798828125 319.9238586425781 356.04296875 C 318.7969665527344 353.1119384765625 318.2335205078125 349.930419921875 318.2335205078125 346.498291015625 C 318.2335205078125 344.1595458984375 318.4010009765625 341.798095703125 318.73602294921875 339.413818359375 C 319.0710754394531 337.029541015625 319.5736083984375 334.6224365234375 320.24365234375 332.192626953125 C 320.9136962890625 329.7628173828125 321.71319580078125 327.3785400390625 322.64215087890625 325.039794921875 C 323.571044921875 322.7010498046875 324.62945556640625 320.407958984375 325.8172607421875 318.16033935546875 C 327.0355224609375 315.9127197265625 328.352783203125 313.72589111328125 329.76904296875 311.5997314453125 C 331.185302734375 309.4736328125 332.70050048828125 307.4083251953125 334.314697265625 305.4036865234375 C 335.928955078125 303.3990478515625 337.596435546875 301.5235595703125 339.3172607421875 299.777099609375 C 341.0380859375 298.0306396484375 342.81219482421875 296.413330078125 344.63958740234375 294.925048828125 C 348.29443359375 291.948486328125 352.071044921875 289.6097412109375 355.96954345703125 287.90887451171875 C 359.928955078125 286.2080078125 363.827392578125 285.3575439453125 367.66497802734375 285.3575439453125 C 370.3756103515625 285.7220458984375 372.99493408203125 286.7698974609375 375.5228271484375 288.50115966796875 C 378.05078125 290.232421875 380.4873046875 292.6470947265625 382.83251953125 295.7451171875M 370.68017578125 301.3033447265625 C 367.5126953125 301.72857666015625 364.22332763671875 302.973876953125 360.81219482421875 305.0391845703125 C 357.4619140625 307.0438232421875 354.29443359375 309.74700927734375 351.30963134765625 313.1488037109375 C 349.8172607421875 314.84967041015625 348.38580322265625 316.69482421875 347.0152587890625 318.68426513671875 C 345.6446533203125 320.6737060546875 344.33502197265625 322.807373046875 343.0863037109375 325.0853271484375 C 341.8680419921875 327.33294677734375 340.7791748046875 329.6640625 339.81982421875 332.0787353515625 C 338.86041259765625 334.493408203125 338.03045654296875 336.9915771484375 337.3299560546875 339.5732421875 C 339.6751708984375 338.449462890625 341.91943359375 337.25921630859375 344.06280517578125 336.0025634765625 C 346.20623779296875 334.745849609375 348.24871826171875 333.4227294921875 350.19036865234375 332.033203125 C 354.0736083984375 329.2540283203125 357.55328369140625 326.20916748046875 360.62945556640625 322.89849853515625 C 363.73602294921875 319.587890625 366.126953125 316.1329345703125 367.802001953125 312.53375244140625 C 369.4771728515625 308.9345703125 370.4365234375 305.19110107421875 370.68017578125 301.3033447265625"/>
    <path stroke-width="0" fill="rgb(0, 0, 0)" opacity="1.0" d="M 418.558349609375 282.715087890625 C 421.60406494140625 283.62628173828125 424.467041015625 285.63092041015625 427.147216796875 288.72894287109375 C 429.8883056640625 291.8270263671875 431.89849853515625 295.228759765625 433.17767333984375 298.93426513671875 C 431.89849853515625 301.9107666015625 429.8883056640625 305.525146484375 427.147216796875 309.77740478515625 C 424.467041015625 313.9688720703125 421.78680419921875 318.25146484375 419.1065673828125 322.6251220703125 C 416.4263916015625 326.99884033203125 413.9898681640625 331.159912109375 411.7969970703125 335.1083984375 C 409.66497802734375 339.056884765625 408.416259765625 342.3067626953125 408.05078125 344.858154296875 C 409.9390869140625 342.9749755859375 412.0101318359375 340.78814697265625 414.26397705078125 338.297607421875 C 416.57867431640625 335.8070068359375 418.802001953125 333.31640625 420.93402099609375 330.8258056640625 C 423.126953125 328.33526611328125 425.1370849609375 326.087646484375 426.9644775390625 324.0830078125 C 428.852783203125 322.0177001953125 430.314697265625 320.4686279296875 431.3502197265625 319.43597412109375 C 433.60406494140625 317.2491455078125 436.2537841796875 314.69781494140625 439.29949951171875 311.781982421875 C 442.34521484375 308.8662109375 445.5126953125 306.102294921875 448.802001953125 303.490234375 C 452.15234375 300.87811279296875 455.53302001953125 298.660888671875 458.9442138671875 296.8385009765625 C 462.3553466796875 295.01611328125 465.4619140625 294.10498046875 468.26397705078125 294.10498046875 C 471.30963134765625 294.10498046875 473.83758544921875 295.0465087890625 475.84771728515625 296.92962646484375 C 477.9188232421875 298.812744140625 479.532958984375 300.7869873046875 480.69036865234375 302.85235595703125 C 480.69036865234375 303.0953369140625 480.2335205078125 303.429443359375 479.31982421875 303.85467529296875 C 478.467041015625 304.2191162109375 477.21826171875 305.31256103515625 475.5736083984375 307.13494873046875 C 473.928955078125 309.1395263671875 472.071044921875 311.933837890625 470.0 315.51788330078125 C 467.9898681640625 319.10186767578125 466.0101318359375 322.9896240234375 464.0609130859375 327.18109130859375 C 462.172607421875 331.311767578125 460.5888671875 335.53363037109375 459.3096923828125 339.8465576171875 C 458.03045654296875 344.1595458984375 457.390869140625 348.07763671875 457.390869140625 351.6009521484375 C 457.390869140625 354.45599365234375 457.75634765625 356.2783203125 458.4873046875 357.06805419921875 C 459.2791748046875 357.8577880859375 460.3756103515625 358.2525634765625 461.776611328125 358.2525634765625 C 463.05584716796875 358.2525634765625 464.39599609375 357.7666015625 465.7969970703125 356.794677734375 C 467.197998046875 355.82275390625 468.29443359375 355.3367919921875 469.0863037109375 355.3367919921875 C 469.5736083984375 355.6405029296875 469.96954345703125 356.2783203125 470.27410888671875 357.250244140625 C 470.57867431640625 358.22222900390625 470.73095703125 359.10302734375 470.73095703125 359.8927001953125 C 469.75634765625 360.68243408203125 468.62945556640625 361.50250244140625 467.3502197265625 362.3529052734375 C 466.071044921875 363.14263916015625 464.73095703125 363.9019775390625 463.3299560546875 364.63092041015625 C 461.928955078125 365.299072265625 460.558349609375 365.876220703125 459.21826171875 366.3621826171875 C 457.878173828125 366.787353515625 456.659912109375 367.0 455.5634765625 367.0 C 452.21319580078125 367.0 449.441650390625 366.5140380859375 447.248779296875 365.5421142578125 C 445.11676025390625 364.5701904296875 443.4111328125 363.26416015625 442.1319580078125 361.6240234375 C 440.9136962890625 359.98388671875 440.0609130859375 358.03997802734375 439.5736083984375 355.7923583984375 C 439.147216796875 353.5447998046875 438.93402099609375 351.14532470703125 438.93402099609375 348.593994140625 C 438.93402099609375 347.257568359375 439.05584716796875 345.7086181640625 439.29949951171875 343.9468994140625 C 439.54315185546875 342.185302734375 440.0 340.15032958984375 440.6700439453125 337.84197998046875 C 441.4010009765625 335.472900390625 442.4061279296875 332.648193359375 443.685302734375 329.367919921875 C 444.9644775390625 326.02691650390625 446.609130859375 322.048095703125 448.6192626953125 317.431396484375 C 448.3756103515625 317.431396484375 446.7918701171875 318.25146484375 443.8680419921875 319.8916015625 C 440.9442138671875 321.470947265625 437.776611328125 323.93115234375 434.365478515625 327.272216796875 C 428.88330078125 332.496337890625 423.94921875 337.6597900390625 419.5634765625 342.76239013671875 C 415.17767333984375 347.8043212890625 410.70050048828125 353.45367431640625 406.1319580078125 359.71051025390625 C 403.5736083984375 363.29449462890625 401.31982421875 366.331787109375 399.37060546875 368.8223876953125 C 397.42132568359375 371.31298828125 395.7462158203125 372.953125 394.34521484375 373.7427978515625 C 391.90863037109375 372.34564208984375 390.1116943359375 370.4017333984375 388.954345703125 367.91119384765625 C 387.7969970703125 365.4813232421875 386.9136962890625 362.9300537109375 386.3045654296875 360.2572021484375 C 386.3045654296875 358.131103515625 386.609130859375 355.42791748046875 387.21826171875 352.14764404296875 C 387.8883056640625 348.86737060546875 388.7716064453125 345.22259521484375 389.8680419921875 341.21337890625 C 391.025390625 337.1434326171875 392.39599609375 332.92156982421875 393.979736328125 328.5478515625 C 395.6243896484375 324.1134033203125 397.4517822265625 319.7093505859375 399.4619140625 315.33563232421875 C 403.90863037109375 305.373291015625 407.95941162109375 297.5675048828125 411.6142578125 291.9180908203125 C 415.3299560546875 286.2080078125 417.6446533203125 283.14031982421875 418.558349609375 282.715087890625"/>
  </g>
</svg>
